<?xml version="1.0" encoding="UTF-8"?>
<svg  viewBox="0 0 72 72" version="1.1" xmlns="http://www.w3.org/2000/svg" xmlns:xlink="http://www.w3.org/1999/xlink">
    <!-- Generator: Sketch 49.2 (51160) - http://www.bohemiancoding.com/sketch -->
    <title>TripAdvisor</title>
    <desc>Created with Sketch.</desc>
    <defs></defs>
    <g id="Page-1" stroke="none" stroke-width="1" fill="none" fill-rule="evenodd">
        <g id="Social-Icons---Squared-Black" transform="translate(-40.000000, -1835.000000)">
            <g id="TripAdvisor" transform="translate(40.000000, 1835.000000)">
                <polygon id="Square" fill="#000000" points="0 72 72 72 72 0 0 0"></polygon>
                <path d="M18.0116464,28.2667097 C18.0639044,28.4629677 19.0510012,29.8994839 19.5178399,31.1165161 C19.7756464,31.7865806 19.7454528,31.8016774 19.4864851,32.1872258 C16.2766786,36.943871 18.4935818,43.6212903 23.942356,45.4747097 C27.1428722,46.5628387 30.7510012,45.9032258 33.0526786,43.5806452 C33.366227,43.2636129 33.626356,42.9338065 33.9817109,42.6945806 C34.0722915,43.0290323 34.6796464,43.8303226 34.8898399,44.1473548 C35.1128076,44.4818065 35.6005496,45.3156129 35.8885496,45.5083871 C35.9686786,45.2052903 37.5445496,42.8769032 37.794227,42.6945806 C38.4538399,43.6793548 39.5373238,44.4144516 40.5534528,45.0171613 C42.7657109,46.3317419 45.9894528,46.2910968 48.2946141,45.3016774 C51.3070012,44.008 53.6737109,40.9433548 53.6737109,37.5233548 C53.6737109,35.3842581 53.3915173,33.8757419 52.2000334,32.1883871 C51.8597754,31.7064516 51.9387431,31.7587097 52.1408076,31.1815484 C52.582098,29.9122581 53.1697109,29.2189677 53.6737109,28.2667097 C51.9201625,28.2667097 50.1619689,28.2527742 48.4084205,28.2690323 C47.3713883,28.2794839 47.7325496,28.176129 46.5050657,27.5409032 C46.1845496,27.376 46.0266141,27.240129 45.6759044,27.0996129 C42.0851947,25.6549677 40.2201625,25 35.9791302,25 C31.9273883,25 29.6175818,25.4772903 26.0489367,26.9579355 C25.6691947,27.115871 25.4636464,27.2029677 25.1199044,27.3887742 C24.5427431,27.7011613 23.8204205,28.2458065 23.3710012,28.2725161 C21.7184851,28.3677419 19.7048076,28.2667097 18.0116464,28.2667097 M34.7075173,26.6339355 C32.9876464,26.6339355 30.586098,27.0636129 29.0241625,27.5734194 L27.4482915,28.176129 C30.3445496,28.2411613 33.5276464,30.2513548 34.8608076,32.9246452 C35.2568076,33.7166452 35.7968076,34.8523871 35.7968076,35.98 L35.8885496,35.98 C35.8885496,35.0660645 36.5040334,33.496 36.8570657,32.8654194 C37.110227,32.4136774 37.3366786,32.0594839 37.6490657,31.6623226 C39.2028722,29.6916129 41.618356,28.2667097 44.2370657,28.2667097 C44.0082915,28.068129 43.7365496,27.9891613 43.4473883,27.8765161 C40.4280334,26.7024516 37.902227,26.6339355 34.7075173,26.6339355 M26.9953883,44.1473548 C24.2291947,44.1473548 21.7730657,42.5261935 20.7035173,40.3661935 C19.8511302,38.6451613 19.9173238,38.3815484 19.9173238,36.5246452 C19.9173238,33.3729032 23.1271302,30.0806452 26.5413238,30.0806452 C29.0218399,30.0806452 30.4850657,30.6194839 32.1004205,32.236 C35.3984851,35.5329032 34.3428722,41.5263226 29.8986141,43.5109677 C29.1495818,43.8454194 28.0730657,44.1473548 26.9953883,44.1473548 M22.3676464,36.9775484 C22.3676464,36.4572903 22.6010657,35.6072258 22.7891947,35.2216774 C23.6880334,33.3763871 25.0513883,32.6227097 27.0859689,32.6227097 C30.586098,32.6227097 32.8575818,37.2434839 29.9230012,40.1780645 C27.1881625,42.9117419 22.3676464,40.9050323 22.3676464,36.9775484 M24.0004205,37.0692903 C24.0004205,34.3994839 27.0418399,33.3043871 28.8348722,34.9569032 C30.550098,36.5374194 29.594356,39.7913548 26.8966786,39.8656774 C25.3730657,39.9074839 24.0004205,38.6242581 24.0004205,37.0692903 M44.418227,41.424129 L44.8711302,41.424129 C47.0833883,41.424129 49.1365496,39.4545806 49.1365496,37.2504516 C49.1365496,35.6757419 48.9275173,35.0056774 47.7987431,33.8699355 C45.9708722,32.0304516 42.8098399,32.3068387 41.4081625,34.0592258 C39.9089367,35.935871 39.838098,38.2526452 41.4790012,40.0061935 L41.5684205,40.1002581 C41.898227,40.4312258 42.2953883,40.759871 42.7088076,40.956129 C43.1129367,41.1489032 43.8573238,41.424129 44.418227,41.424129 M41.8773238,37.0692903 C41.8773238,37.9077419 42.3011947,38.6811613 42.7610657,39.0887742 C43.1791302,39.4627097 44.0837754,39.9202581 44.8479044,39.859871 C47.6454528,39.6380645 48.3271302,36.4468387 46.7106141,34.9569032 C44.9164205,33.3020645 41.8773238,34.4064516 41.8773238,37.0692903 M26.814227,38.5209032 C28.7396464,38.5209032 29.0764205,35.5259355 26.6319044,35.5259355 C25.0467431,35.5259355 24.7564205,38.5209032 26.814227,38.5209032 M43.238356,36.7975484 L43.238356,37.2504516 C43.238356,38.2990968 44.8188722,38.9633548 45.758356,38.1365161 C46.5027431,37.4815484 46.5747431,35.5259355 44.5088076,35.5259355 C43.942098,35.5259355 43.238356,36.2296774 43.238356,36.7975484 M45.0534528,44.1473548 C43.230227,44.1473548 42.0190012,43.8372903 40.5685496,42.8234839 C40.234098,42.5900645 39.8566786,42.2788387 39.5837754,41.9931613 C37.1880334,39.4847742 36.9871302,35.1949677 39.3120334,32.5983226 C39.810227,32.0443871 39.962356,31.8365161 40.6835173,31.3383226 C43.1082915,29.6625806 46.2832593,29.6741935 48.7335818,31.3011613 C49.8054528,32.0141935 50.6044205,32.9676129 51.1653238,34.1335484 C52.0130657,35.8952258 52.0513883,38.0076129 51.2779689,39.8447742 C50.9562915,40.6065806 50.4476464,41.407871 49.8867431,41.9931613 C48.8996464,43.0243871 47.0346141,44.1473548 45.0534528,44.1473548" fill="#FFFFFF"></path>
            </g>
        </g>
    </g>
</svg>